<svg xmlns="http://www.w3.org/2000/svg" version="1.1" xmlns:xlink="http://www.w3.org/1999/xlink" xmlns:svgjs="http://svgjs.dev/svgjs" width="800" height="2541" preserveAspectRatio="none" viewBox="0 0 800 2541"><g mask="url(&quot;#SvgjsMask1267&quot;)" fill="none"><rect width="800" height="2541" x="0" y="0" fill="rgba(20, 30, 159, 1)"></rect><path d="M280.9428342906465 1150.0830685515664L143.143618584472 1105.3093892431834 98.36993927608907 1243.1086049493579 236.16915498226356 1287.8822842577408z" fill="rgba(62, 215, 229, 0.4)" class="triangle-float2"></path><path d="M-210.87 264.85 a245.6 245.6 0 1 0 491.2 0 a245.6 245.6 0 1 0 -491.2 0z" fill="rgba(62, 215, 229, 0.4)" class="triangle-float2"></path><path d="M128.8597855683286 723.38101459091L3.5324933705611556 689.7996678569389-30.04885336340999 815.1269600547063 95.27843883435744 848.7083067886774z" fill="rgba(62, 215, 229, 0.4)" class="triangle-float1"></path><path d="M29.86803075108307 2210.50011440422L-71.99612919085412 2419.3525928524214 136.85634925734757 2521.216752794359 238.72050919928475 2312.364274346157z" fill="rgba(62, 215, 229, 0.4)" class="triangle-float1"></path><path d="M213.05440977098047 290.812056988593L387.4242524250434 177.57495714438937 99.81730992677686 116.44221433453004z" fill="rgba(62, 215, 229, 0.4)" class="triangle-float1"></path><path d="M484.57818516167094 1161.5914573267808L709.6558614306122 1169.4513429775068 717.5157470813381 944.3736667085655 492.4380708123969 936.5137810578395z" fill="rgba(62, 215, 229, 0.4)" class="triangle-float3"></path><path d="M232.72946820396726 2086.3330653848L147.54898459907338 1885.6604215621999-53.12365922352694 1970.8409051670938 32.05682438136691 2171.513548989694z" fill="rgba(62, 215, 229, 0.4)" class="triangle-float2"></path><path d="M707.8773901980524 532.2444069933533L723.302588071549 385.4834526464055 576.5416337246013 370.05825477290875 561.1164358511046 516.8192091198566z" fill="rgba(62, 215, 229, 0.4)" class="triangle-float1"></path><path d="M288.82 689.02 a240.83 240.83 0 1 0 481.66 0 a240.83 240.83 0 1 0 -481.66 0z" fill="rgba(62, 215, 229, 0.4)" class="triangle-float1"></path><path d="M361.74 2135.44 a244.44 244.44 0 1 0 488.88 0 a244.44 244.44 0 1 0 -488.88 0z" fill="rgba(62, 215, 229, 0.4)" class="triangle-float3"></path><path d="M495.66940670563395 1486.4007646367636L369.6702416810343 1447.8789540505707 331.1484310948413 1573.8781190751702 457.1475961194409 1612.399929661363z" fill="rgba(62, 215, 229, 0.4)" class="triangle-float1"></path><path d="M716.0394484858145 792.8335481300921L848.7988668925574 885.9813750079367 863.617736220878 744.9892514187935z" fill="rgba(62, 215, 229, 0.4)" class="triangle-float2"></path><path d="M391.7134494820544-104.76081509992244L191.5811800664988-35.8497484298199 260.4922467366014 164.28252098573566 460.62451615215696 95.37145431563314z" fill="rgba(62, 215, 229, 0.4)" class="triangle-float2"></path><path d="M509.1884132747956 1228.0171782018576L517.8697593562747 1103.8681452316112 393.7207263860281 1095.1867991501322 385.03938030454907 1219.3358321203787z" fill="rgba(62, 215, 229, 0.4)" class="triangle-float2"></path><path d="M184.4348886781038 57.691083159612596L282.70226723412145 149.32689613829945 371.02229742414283-43.89207818507042z" fill="rgba(62, 215, 229, 0.4)" class="triangle-float3"></path><path d="M589.25 2230.87 a159.31 159.31 0 1 0 318.62 0 a159.31 159.31 0 1 0 -318.62 0z" fill="rgba(62, 215, 229, 0.4)" class="triangle-float1"></path><path d="M189.42926846278482 1303.0744344122359L163.59779916449182 1513.454869121124 373.97823387337985 1539.286338419417 399.8097031716728 1328.905903710529z" fill="rgba(62, 215, 229, 0.4)" class="triangle-float1"></path><path d="M234.804,2037.375C256.618,2036.184,272.76,2019.792,284.001,2001.06C295.682,1981.594,304.865,1958.402,294.231,1938.345C283.084,1917.321,258.588,1907.511,234.804,1908.266C212.315,1908.98,193.181,1922.649,181.571,1941.922C169.52,1961.927,163.958,1986.594,175.333,2006.991C186.954,2027.829,210.98,2038.675,234.804,2037.375" fill="rgba(62, 215, 229, 0.4)" class="triangle-float1"></path></g><defs><mask id="SvgjsMask1267"><rect width="800" height="2541" fill="#ffffff"></rect></mask><style>
                @keyframes float1 {
                    0%{transform: translate(0, 0)}
                    50%{transform: translate(-10px, 0)}
                    100%{transform: translate(0, 0)}
                }

                .triangle-float1 {
                    animation: float1 5s infinite;
                }

                @keyframes float2 {
                    0%{transform: translate(0, 0)}
                    50%{transform: translate(-5px, -5px)}
                    100%{transform: translate(0, 0)}
                }

                .triangle-float2 {
                    animation: float2 4s infinite;
                }

                @keyframes float3 {
                    0%{transform: translate(0, 0)}
                    50%{transform: translate(0, -10px)}
                    100%{transform: translate(0, 0)}
                }

                .triangle-float3 {
                    animation: float3 6s infinite;
                }
            </style></defs></svg>