<svg xmlns="http://www.w3.org/2000/svg" version="1.1" xmlns:xlink="http://www.w3.org/1999/xlink" xmlns:svgjs="http://svgjs.dev/svgjs" width="500" height="1588" preserveAspectRatio="none" viewBox="0 0 500 1588"><g mask="url(&quot;#SvgjsMask1339&quot;)" fill="none"><rect width="500" height="1588" x="0" y="0" fill="rgba(20, 30, 159, 1)"></rect><path d="M405.4006877813081 116.84127268572331L484.3153116794198 198.5597579335996 487.11917302918437 37.92664878761164z" fill="rgba(62, 215, 229, 0.4)" class="triangle-float3"></path><path d="M228.65486024862042 1455.3296515941158L256.03440951181466 1371.0640635715042 171.76882148920302 1343.6845143083099 144.38927222600879 1427.9501023309217z" fill="rgba(62, 215, 229, 0.4)" class="triangle-float1"></path><path d="M75.38898600789989 1468.1466027229023L16.31450447938097 1406.97318632866 14.215569613657486 1527.2210842514212z" fill="rgba(62, 215, 229, 0.4)" class="triangle-float3"></path><path d="M187.92890383714578 106.49275413703123L239.41220139354468 188.88325288543092 321.8027001419444 137.39995532903203 270.3194025855455 55.009456580632325z" fill="rgba(62, 215, 229, 0.4)" class="triangle-float2"></path><path d="M-10.6569902823623 542.2970390770004L-34.29120860358984 615.0356837182482 86.63386751889557 614.1176888794655z" fill="rgba(62, 215, 229, 0.4)" class="triangle-float1"></path><path d="M253.79283890481983 459.0792431122727L313.48411369128746 550.995745801383 405.4006163803978 491.3044710149154 345.70934159393016 399.38796832580505z" fill="rgba(62, 215, 229, 0.4)" class="triangle-float2"></path><path d="M40.56,939.669C79.385,942.22,119.512,926.079,138.555,892.148C157.282,858.78,147.218,818.151,126.988,785.672C108.047,755.262,76.38,734.146,40.56,734.82C5.795,735.475,-24.009,758.164,-40.409,788.824C-55.88,817.748,-52.924,851.686,-37.411,880.588C-20.882,911.382,5.685,937.378,40.56,939.669" fill="rgba(62, 215, 229, 0.4)" class="triangle-float1"></path><path d="M256.2753375517702 1103.5376894187916L146.96246528564328 1052.5642599461776 95.98903581302918 1161.8771322123043 205.30190807915608 1212.8505616849186z" fill="rgba(62, 215, 229, 0.4)" class="triangle-float1"></path><path d="M-65.9 1269.37 a121.98 121.98 0 1 0 243.96 0 a121.98 121.98 0 1 0 -243.96 0z" fill="rgba(62, 215, 229, 0.4)" class="triangle-float1"></path><path d="M544.213,1579.373C599.719,1581.731,653.03,1551.527,679.484,1502.674C704.849,1455.832,693.336,1399.985,666.164,1354.167C639.626,1309.417,596.192,1272.351,544.213,1274.576C494.979,1276.684,462.411,1320.472,439.099,1363.888C417.363,1404.369,407.34,1450.673,427.484,1491.969C450.325,1538.793,492.162,1577.162,544.213,1579.373" fill="rgba(62, 215, 229, 0.4)" class="triangle-float2"></path><path d="M231.587614554367 655.5129067146197L356.70407600083723 637.9289347879233 339.1201040741408 512.812473341453 214.00364262767056 530.3964452681495z" fill="rgba(62, 215, 229, 0.4)" class="triangle-float3"></path><path d="M320.4581898520245 285.82091638260977L430.0803478845628 243.74091247094952 388.00034397290256 134.1187544384112 278.37818594036423 176.19875835007144z" fill="rgba(62, 215, 229, 0.4)" class="triangle-float3"></path><path d="M431.2895358219324 6.501871684829531L326.37067641986494-54.07306003402258 265.79574470101284 50.84579936804487 370.7146041030803 111.42073108689698z" fill="rgba(62, 215, 229, 0.4)" class="triangle-float2"></path><path d="M290.602,755.786C311.692,754.58,326.724,737.39,336.711,718.776C346.049,701.373,348.965,681.228,340.066,663.596C330.201,644.05,312.47,628.49,290.602,627.417C266.949,626.256,243.808,637.794,231.948,658.291C220.071,678.819,222.129,704.306,234.355,724.628C246.197,744.312,267.667,757.097,290.602,755.786" fill="rgba(62, 215, 229, 0.4)" class="triangle-float1"></path><path d="M305.37809783993737 816.9735892977571L394.8414503475112 931.4814587277658 509.34931977751995 842.018106220192 419.8859672699461 727.5102367901833z" fill="rgba(62, 215, 229, 0.4)" class="triangle-float2"></path><path d="M418.161,616.475C452.964,616.045,490.41,607.176,507.055,576.608C523.214,546.931,509.064,511.761,490.584,483.471C474.133,458.286,448.22,441.709,418.161,440.522C385.73,439.242,353.186,450.378,335.107,477.333C314.812,507.591,306.709,547.565,325.383,578.85C343.715,609.563,382.396,616.916,418.161,616.475" fill="rgba(62, 215, 229, 0.4)" class="triangle-float2"></path><path d="M143.86 1104.3 a141.48 141.48 0 1 0 282.96 0 a141.48 141.48 0 1 0 -282.96 0z" fill="rgba(62, 215, 229, 0.4)" class="triangle-float1"></path></g><defs><mask id="SvgjsMask1339"><rect width="500" height="1588" fill="#ffffff"></rect></mask><style>
                @keyframes float1 {
                    0%{transform: translate(0, 0)}
                    50%{transform: translate(-10px, 0)}
                    100%{transform: translate(0, 0)}
                }

                .triangle-float1 {
                    animation: float1 5s infinite;
                }

                @keyframes float2 {
                    0%{transform: translate(0, 0)}
                    50%{transform: translate(-5px, -5px)}
                    100%{transform: translate(0, 0)}
                }

                .triangle-float2 {
                    animation: float2 4s infinite;
                }

                @keyframes float3 {
                    0%{transform: translate(0, 0)}
                    50%{transform: translate(0, -10px)}
                    100%{transform: translate(0, 0)}
                }

                .triangle-float3 {
                    animation: float3 6s infinite;
                }
            </style></defs></svg>