<svg xmlns="http://www.w3.org/2000/svg" version="1.1" xmlns:xlink="http://www.w3.org/1999/xlink" xmlns:svgjs="http://svgjs.dev/svgjs" width="1440" height="4575" preserveAspectRatio="none" viewBox="0 0 1440 4575"><g mask="url(&quot;#SvgjsMask1205&quot;)" fill="none"><rect width="1440" height="4575" x="0" y="0" fill="rgba(20, 30, 159, 1)"></rect><path d="M1181.4632792091654 2355.070462664493L932.2779941185408 2324.4743568511753 1150.867173395848 2604.255747755117z" fill="rgba(62, 215, 229, 0.4)" class="triangle-float1"></path><path d="M485.0515679986898 1187.4463221140854L711.2251100945487 1288.1452709129996 811.9240588934629 1061.9717288171407 585.750516797604 961.2727800182265z" fill="rgba(62, 215, 229, 0.4)" class="triangle-float1"></path><path d="M25.621660069984898 1125.4709943408288L-147.0223936945043 1512.2434595761854 221.8224374702682 1479.9737182491342z" fill="rgba(62, 215, 229, 0.4)" class="triangle-float3"></path><path d="M1051.037861461933 1078.6171238962977L1264.6919638811703 1063.6769736554681 1135.4546873103072 750.6658951470272z" fill="rgba(62, 215, 229, 0.4)" class="triangle-float2"></path><path d="M694.9203244921018 259.45740376083785L772.9080056779967 514.5436149772289 1027.9942168943878 436.55593379133404 950.006535708493 181.46972257494298z" fill="rgba(62, 215, 229, 0.4)" class="triangle-float3"></path><path d="M-332.19 2029.33 a357.83 357.83 0 1 0 715.66 0 a357.83 357.83 0 1 0 -715.66 0z" fill="rgba(62, 215, 229, 0.4)" class="triangle-float2"></path><path d="M374.7925675239044 2697.5337640163807L221.31064623031173 2420.021651245941 74.40692286999143 2655.116752184156z" fill="rgba(62, 215, 229, 0.4)" class="triangle-float3"></path><path d="M1484.5525383992674 3487.081318987983L1397.3311428559368 3200.817525561655 1215.6103459872322 3388.994919365377z" fill="rgba(62, 215, 229, 0.4)" class="triangle-float3"></path><path d="M73.05185120326456 75.25996470740527L-250.0105557106304 269.3754425102219 267.16732900608116 398.32237162130025z" fill="rgba(62, 215, 229, 0.4)" class="triangle-float1"></path><path d="M364.86843275643116 2771.9586457130754L152.952017137816 3205.4027829823413 574.1332796061955 3183.329608340746z" fill="rgba(62, 215, 229, 0.4)" class="triangle-float1"></path><path d="M546.91 2689.99 a343.22 343.22 0 1 0 686.44 0 a343.22 343.22 0 1 0 -686.44 0z" fill="rgba(62, 215, 229, 0.4)" class="triangle-float3"></path><path d="M168.06,4529.766C238.752,4531.387,310.878,4513.127,351.387,4455.17C398.39,4387.922,417.708,4299.857,379.506,4227.248C339.02,4150.298,254.834,4101.179,168.06,4106.73C88.625,4111.812,34.251,4180.338,-1.202,4251.603C-32.308,4314.131,-37.561,4387.421,-1.257,4447.082C33.737,4504.591,100.759,4528.222,168.06,4529.766" fill="rgba(62, 215, 229, 0.4)" class="triangle-float1"></path><path d="M76.59825118406805 3960.044086221413L130.84469810097764 4162.494582245408 407.39721867851495 3979.899663858046z" fill="rgba(62, 215, 229, 0.4)" class="triangle-float1"></path><path d="M1508.4187825943716 758.1248429265297L1073.6680198209021 795.7431426991718 1286.9780821453373 1111.9883152923994z" fill="rgba(62, 215, 229, 0.4)" class="triangle-float3"></path><path d="M145.56823411464416 1990.3412625057579L13.861193542268666 2248.830883982095 272.35081501860594 2380.5379245544705 404.05785559098143 2122.0483030781334z" fill="rgba(62, 215, 229, 0.4)" class="triangle-float1"></path><path d="M1383.981,2463.52C1476.276,2462.45,1555.882,2400.645,1597.699,2318.36C1635.867,2243.257,1624.225,2153.308,1577.133,2083.454C1535.218,2021.279,1458.938,1999.328,1383.981,2001.338C1313.051,2003.24,1248.304,2034.972,1207.977,2093.353C1160.318,2162.348,1125.494,2247.689,1161.502,2323.419C1201.837,2408.249,1290.056,2464.609,1383.981,2463.52" fill="rgba(62, 215, 229, 0.4)" class="triangle-float3"></path><path d="M1157.5708506652495 253.82710478230211L1487.1319969100664 367.3041077017861 1600.6089998295504 37.742961456969226 1271.0478535847335-75.73404146251477z" fill="rgba(62, 215, 229, 0.4)" class="triangle-float1"></path><path d="M100.722,548.47C185.052,549.663,269.803,521.042,315.277,450.014C364.3,373.442,369.131,276.093,326.526,195.773C281.12,110.173,197.611,46.801,100.722,45.533C1.838,44.239,-90.45,101.721,-135.559,189.725C-177.338,271.233,-153.949,367.597,-103.569,444.089C-58.487,512.537,18.769,547.311,100.722,548.47" fill="rgba(62, 215, 229, 0.4)" class="triangle-float3"></path><path d="M406.981,4166.72C514.683,4166.975,570.394,4050.811,623.827,3957.298C676.63,3864.888,743.666,3760.589,692.306,3667.369C639.97,3572.377,515.431,3564.755,406.981,3563.714C295.93,3562.648,165.371,3564.404,112.01,3661.8C59.633,3757.401,136.92,3862.151,191.907,3956.275C246.134,4049.099,299.478,4166.465,406.981,4166.72" fill="rgba(62, 215, 229, 0.4)" class="triangle-float1"></path><path d="M1181.402,1757.691C1293.219,1754.93,1400.171,1707.519,1458.58,1612.13C1519.656,1512.386,1523.727,1389.311,1470.847,1284.99C1412.152,1169.197,1311.17,1068.941,1181.402,1065.313C1046.461,1061.541,926.471,1149.109,862.503,1267.985C801.753,1380.881,809.499,1518.996,879.459,1626.428C943.647,1724.996,1063.812,1760.594,1181.402,1757.691" fill="rgba(62, 215, 229, 0.4)" class="triangle-float1"></path></g><defs><mask id="SvgjsMask1205"><rect width="1440" height="4575" fill="#ffffff"></rect></mask><style>
                @keyframes float1 {
                    0%{transform: translate(0, 0)}
                    50%{transform: translate(-10px, 0)}
                    100%{transform: translate(0, 0)}
                }

                .triangle-float1 {
                    animation: float1 5s infinite;
                }

                @keyframes float2 {
                    0%{transform: translate(0, 0)}
                    50%{transform: translate(-5px, -5px)}
                    100%{transform: translate(0, 0)}
                }

                .triangle-float2 {
                    animation: float2 4s infinite;
                }

                @keyframes float3 {
                    0%{transform: translate(0, 0)}
                    50%{transform: translate(0, -10px)}
                    100%{transform: translate(0, 0)}
                }

                .triangle-float3 {
                    animation: float3 6s infinite;
                }
            </style></defs></svg>